<?xml version="1.0" standalone="no"?>
<!DOCTYPE svg PUBLIC "-//W3C//DTD SVG 1.0//EN" "http://www.w3.org/TR/2001/REC-SVG-20010904/DTD/svg10.dtd">
<svg xmlns="http://www.w3.org/2000/svg" xmlns:xlink="http://www.w3.org/1999/xlink" id="body_1" width="5120" height="3840">

<g transform="matrix(7.5294123 0 0 7.5294123 -0 259.7647)">
    <path d="M294 326.5C 291.12137 331.65186 287.22128 332.8434 280.99692 332.773C 236.00267 332.2641 190.99959 332.58942 146.00053 332.3836C 140.55345 332.3587 136.29375 333.94043 132.50166 337.50177C 122.85702 346.55963 115.11954 357.2093 112.24603 370.05502C 108.86148 385.18546 115.020874 398.38828 124.56933 409.94272C 127.62643 413.64206 131.34538 416.85272 135.05402 419.935C 137.55003 422.0094 140.26564 423.77145 144.00473 423.60843C 148.14423 423.42792 151.32983 426.5259 154.94855 428.11703C 156.34749 428.73212 157.60199 429.02292 158.99959 428.9849C 165.36296 428.812 171.5393 429.83533 177.48096 432.05106C 179.1914 432.68896 180.83615 432.47412 182.50002 432.4752C 230.16667 432.5059 277.83743 432.1114 325.4988 432.61273C 370.33456 433.08438 415.16754 432.70212 459.99942 433.0708C 468.9949 433.1447 477.99615 434.491 486.99713 433.9523C 525.81226 431.62933 564.66376 432.72205 603.50024 432.5565C 613.49866 432.5139 623.49927 433.19342 633.5008 433.47104C 634.99506 433.51254 636.78955 433.63858 637.95355 432.9243C 646.23486 427.84253 656.29016 426.0166 663.5 419" stroke="#000000" stroke-width="6" stroke-linecap="square" fill="none" />
    <path d="M515.5 335.5C 514.88135 341.3944 509.9184 344.5727 506.9052 348.93454C 504.29477 352.71344 501.60947 356.4375 499.53735 360.51898C 495.41684 368.63528 497.07993 376.61252 500.48788 384.50522C 503.63107 391.78467 507.49072 398.67908 511.4949 405.503C 512.3631 406.98254 513.2679 408.45355 513.9815 410.00848C 516.38116 415.23734 515.2318 416.99878 509.5 416.99896C 457.33334 417.0007 405.15836 417.52982 353.00452 416.7115C 334.8418 416.4265 316.62958 417.02145 298.50937 415.8546C 279.34326 414.62048 260.1615 414.81207 241.00017 413.9962C 221.83276 413.18008 202.65608 412.51846 183.50438 411.42337C 173.6461 410.85968 163.829 409.5405 154.0011 408.4897C 141.78288 407.18335 134.10605 399.61414 128.53947 389.4783C 123.72884 380.71896 122.25696 371.50076 124.36765 361.47214C 126.2446 352.55417 131.93251 347.56546 139.51514 344.03247C 146.63364 340.71576 154.43748 340.92102 162.00381 340.58615C 189.48611 339.3699 216.97691 338.5086 244.49878 338.3204C 257.48532 338.2316 270.49106 337.45975 283.49985 337.52917C 284.91092 337.5367 286.8891 336.7176 287.6727 338.04562C 291.49326 344.52078 298.67453 344.85074 304.54102 347.4058C 312.71515 350.9659 321.0954 354.13196 330.0025 355.48355C 331.55023 355.71844 333.07568 355.59067 334 354" stroke="#000000" stroke-width="5" stroke-linecap="square" fill="none" />
    <path d="M391.5 310.5C 395.19025 309.90573 398.28275 311.2115 401.55313 312.89688C 407.12888 315.77032 413.516 315.2924 419.50162 315.36337C 449.5116 315.7192 479.48898 317.2416 509.4935 317.8305C 523.45807 318.10458 537.47125 319.666 551.49915 319.446C 562.8856 319.26746 574.2534 318.61658 585.5082 316.54434C 592.7087 315.21854 595.64624 309.8867 597.96765 303.98727C 602.5885 292.24387 603.40814 280.2729 600.05524 267.98492C 598.1618 261.04596 593.66705 257.07733 586.9858 255.5628C 580.9306 254.19022 574.7564 253.3756 568.4996 253.47273C 567.1692 253.4934 565.4586 253.6379 564.56055 252.92384C 558.54846 248.14331 551.28986 248.85153 544.4957 248.635C 526.17236 248.05096 507.84708 247.43527 489.50104 247.32532C 475.67206 247.24243 461.8342 247.09535 448 247" stroke="#000000" stroke-width="6" stroke-linecap="square" fill="none" />
    <path d="M601.5 247.5C 601.2796 242.72423 597.69055 241.2857 593.98474 240.57997C 588.39923 239.51628 582.71796 238.96971 576.99994 238.98943C 566.3334 239.0262 555.6474 239.41269 545.00397 238.91513C 522.00586 237.84001 498.96548 238.84872 476.01135 237.76035C 454.65295 236.74762 433.3282 237.59369 412.0015 236.9503C 406.32492 236.77907 400.6752 235.791 394.99762 235.55849C 389.26025 235.3235 389.63824 236.17795 388.80347 241.97168C 387.4318 251.49213 388.6266 261.01236 387.59238 270.51007C 386.28766 282.49216 385.18658 294.51886 384.23975 306.51892C 383.1209 320.69843 376.62936 320.47354 366.5111 317.95532C 364.7659 317.521 363.16666 316.5 361.5 315.75" stroke="#000000" stroke-width="5" stroke-linecap="square" fill="none" />
    <path d="M88 321.5C 90.56399 323.30954 93.33749 321.96844 96.000015 321.97012C 158 322.00873 220.00061 322.12823 281.9992 321.8339C 289.55087 321.79803 296.0255 324.05103 302.43286 327.13928C 303.98874 327.8892 305.43692 328.13818 306.97318 328.591C 310.25626 329.5587 313.5199 330.05118 316.7202 332.1669C 319.895 334.2657 324.34613 335.144 329.02066 334.7378C 338.28406 333.93283 347.6687 334.38785 356.99893 334.55893C 360.40787 334.62146 361.97 333.41406 362.02222 330.00034C 362.0866 325.79114 362.02966 321.55023 363.5 317.5" stroke="#000000" stroke-width="5" stroke-linecap="square" fill="none" />
    <path d="M313 257C 244.66246 255.44157 176.33716 258.90106 108 257.5" stroke="#000000" stroke-width="5" stroke-linecap="square" fill="none" />
    <path d="M526.5 337.5C 524 341.33334 521.1524 344.98764 519.0675 349.0348C 513.58856 359.67017 510.7355 370.90955 512.49274 383.00104C 513.33325 388.7845 516.1927 392.41898 521.94476 394.6428C 531.36646 398.2854 541.23535 398.9238 550.9884 400.56873C 563.09204 402.61008 575.36487 402.8658 587.4405 404.4527C 592.6809 405.14133 598.6371 403.4911 603.5 407" stroke="#000000" stroke-width="5" stroke-linecap="square" fill="none" />
    <path d="M546.5 416C 547.77344 417.81076 549.6874 417.4981 551.5 417.49826C 579.5 417.50073 607.5001 417.53802 635.4999 417.4556C 639.3341 417.44427 643.16235 416.76752 647.0009 416.51392C 654.6927 416.00568 662.2576 416.5678 669.5 419.5" stroke="#000000" stroke-width="4" stroke-linecap="square" fill="none" />
    <path d="M561.5 249C 563.0999 247.13315 565.2298 247.06691 567.498 246.95827C 578.5314 246.42976 589.4643 248.60458 600.5029 248.05965C 603.53516 247.90999 608.4592 253.17928 609.00415 256.49933C 611.73175 273.11942 611.9288 289.79324 609.9736 306.49692C 609.48346 310.68423 608.88873 314.88434 607.94666 318.98776C 606.61395 324.79242 602.49097 328.07367 596.99316 329.72736C 593.8748 330.66537 590.3565 330.65817 589.38416 334.9739C 589.06647 336.38403 587.0319 336.60315 585.50073 336.49045C 571.0101 335.42374 556.4672 336.73465 542.0172 335.74768C 537.0035 335.40524 532.2633 335.06702 527.5194 336.56168C 526.228 336.9686 525.50104 336.39902 524.48737 336.0352C 519.63196 334.29245 514.5488 334.50198 509.5 334.50153C 475.16666 334.49857 440.82147 334.0041 406.50775 334.8245C 397.11646 335.04904 391.06937 330.69876 384.564 325.91302C 382.9367 324.71594 381.44287 323.50223 379.49533 323.01874C 377.7017 322.57352 376.26825 321.75345 375.5 320" stroke="#000000" stroke-width="8" stroke-linecap="square" fill="none" />
    <path d="M377 200C 388.65485 189.11047 392.857 174.30873 398.002 160.00072C 399.3222 156.32933 400.70096 152.67867 401.9898 148.99643C 403.14893 145.68481 402.4827 143.8199 398.52377 142.89795C 387.39572 140.30646 376.16687 141.75098 364.9986 141.63C 359.00653 141.56508 353.00708 142.91524 346.9944 143.43501C 345.69952 143.54695 344.33334 142.83333 343 142.5" stroke="#000000" stroke-width="5" stroke-linecap="square" fill="none" />
    <path d="M300.5 197C 293.16666 202.59056 285.86853 199.63625 278.4914 197.02432C 268.5204 193.49399 259.1947 188.70555 249.89091 183.70287C 245.64958 181.42227 242.01279 178.4797 238.00673 175.98918C 235.07266 174.16508 233.04622 171.84216 233.46599 167.99629C 233.83974 164.57225 231.42249 161.85274 230.70975 158.56288C 227.63033 144.34912 225.95082 129.798 221.03394 115.98792C 217.61734 106.39178 214.80864 96.58685 209.07393 87.950905C 207.34705 85.35036 205.71649 82.05403 202.55048 82.73479C 199.43463 83.40475 199.7287 87.12241 199.44463 89.99452C 199.04826 94.00175 198.21436 97.9423 197.84833 101.986275C 197.31885 107.83617 200.53491 112.76627 200.69638 118.49446C 200.93193 126.84935 202.46063 135.17169 203.52171 143.49724C 203.88503 146.34798 204.0381 149.36046 205.12376 151.94807C 206.32246 154.80515 204.63947 156.23853 202.96216 156.90474C 186.84764 163.30539 171.73106 171.80418 156.00179 179.00389C 154.0082 179.91641 151.85548 180.65268 150.86293 183.37917C 153.47704 186.83792 152.87067 191.29253 153.5 195.5" stroke="#000000" stroke-width="4" stroke-linecap="square" fill="none" />
    <path d="M253 102C 259.67468 101.04655 265.57373 105.653755 264.90616 111.99011C 263.74347 123.02565 262.0897 134.0133 260.4608 144.99419C 259.68933 150.19475 258.4401 155.32281 257.5291 160.50511C 257.1571 162.62126 257.65323 164.37933 259.44565 166.05804C 266.41214 172.5827 274.93314 176.36853 283.5354 179.9141C 288.24518 181.8553 292.94672 184.76648 298.5 183" stroke="#000000" stroke-width="5" stroke-linecap="square" fill="none" />
    <path d="M78.5 180.5C 73.333336 183.2157 68.18007 180.22499 62.99682 180.31342C 55.467785 180.44186 48.019325 179.49374 40.457485 181.32439C 35.83179 182.44423 34.18912 185.2364 34.100616 189.00237C 33.84018 200.08469 34.221638 211.08493 36.77149 222.05312C 38.047688 227.54265 38.853645 233.33022 39.368343 239.01193C 39.80907 243.87712 41.23889 248.38353 42.423363 253.01958C 42.830936 254.61484 43.22047 256.61075 41.5 258" stroke="#000000" stroke-width="5" stroke-linecap="square" fill="none" />
    <path d="M298 25.5C 301.46283 20.031658 304.46057 19.333069 310.4384 24.077648C 323.04987 34.0874 329.05786 47.115646 327.58765 63.507862C 326.84872 71.74638 325.20615 79.54203 321.7004 87.09304C 320.8114 89.00782 318.9586 90.00849 318.33398 92.661835C 330.19626 107.120964 335.69925 125.24657 343 142.5" stroke="#000000" stroke-width="4" stroke-linecap="square" fill="none" />
    <path d="M299.5 27.5C 290.96072 20.726002 281.70453 22.638811 276.01767 32.510178C 268.4506 45.64526 263.38574 59.753838 259.97574 74.494385C 259.31125 77.36678 258.22104 80.13927 257.52185 83.005325C 255.69978 90.47404 259.91678 94.97765 266.91306 92.27495C 270.28275 90.97323 274.33557 89.92093 276.62027 86.07139C 278.08044 83.611176 280.9275 82.66499 283.93713 81.78502C 288.20718 80.536514 289.4433 83.21562 291.54517 85.45765C 293.1512 87.17075 295.2466 88.41338 296.98422 90.017105C 301.28473 93.98626 305.6271 93.94627 310.0145 90.016174C 318.2643 82.62619 322.33038 73.68862 320.4913 62.50143C 319.2879 55.180954 314.25528 49.976097 309.7938 44.673504C 308.53384 43.176067 308.13477 42.09929 308 40.5" stroke="#000000" stroke-width="5" stroke-linecap="square" fill="none" />
    <path d="M240.5 242C 239.34837 243.54514 237.69698 243.57831 235.99992 243.50177C 222.34021 242.88571 208.66837 243.58609 194.97859 242.99953C 188.94655 242.74106 182.34096 243.86926 175.99933 243.9385C 159.33464 244.1205 142.66612 244.07533 126.000336 243.95409C 120.99818 243.91771 116 243.33334 111 243" stroke="#000000" stroke-width="5" stroke-linecap="square" fill="none" />
    <path d="M383.5 324C 385.25815 322.0056 387.6119 322.03036 389.99973 321.98593C 408.7208 321.63712 427.30515 324.30637 446.00006 324.49277C 450.83295 324.54095 455.66766 324.43784 460.49976 324.51508C 467.1674 324.62158 473.83334 324.83334 480.5 325" stroke="#000000" stroke-width="6" stroke-linecap="square" fill="none" />
    <path d="M248.5 240C 254.73549 238.16563 256.7559 233.72435 258.24994 227.5606C 261.0055 216.19258 270.33087 212.82304 280.9956 211.9464C 286.33112 211.50783 291.60834 210.33902 296.99954 210.51425C 299.1349 210.58366 300.568 208.94225 302.48196 208.43228C 303.5815 208.13928 304.45084 207.07121 305.51248 206.5242C 306.83456 205.84296 331.55225 206.51671 332.99176 207.26581C 335.86252 208.75969 339.01608 207.69609 342.02167 208.40863C 346.3722 209.44005 347.7493 210.71204 346.9682 214.9942C 345.33234 223.96233 344.53748 233.20418 342.3842 241.90952C 338.82343 256.3052 335.454 270.79883 331.36752 285.10498C 327.97324 296.98776 323.67007 308.5693 320.50433 320.50116C 319.49536 324.3039 316.00992 326.5238 314.5 330" stroke="#000000" stroke-width="5" stroke-linecap="square" fill="none" />
    <path d="M609.5 255.5C 615.5509 256.23105 615.4098 261.9585 616.25165 265.55807C 619.70874 280.34036 618.91925 295.46375 617.9455 310.49646C 617.5485 316.6252 613.76276 320.30228 608.5 320.5" stroke="#000000" stroke-width="6" stroke-linecap="square" fill="none" />
    <path d="M110 239C 109.90689 248.42375 106.5668 257.12094 104.01649 266.00473C 99.098366 283.1365 93.75546 300.1361 87.95282 316.98373C 84.72868 326.34485 82.83801 336.71274 75.55863 343.80353C 69.64319 349.56577 68.21468 357.49295 63.169144 363.63885C 52.16858 377.03845 38.3267 382.41083 21.509027 380.89954C 18.113255 380.59442 14.70575 379.29486 11.533596 377.92236C 7.900887 376.3505 7.481748 373.40433 10.006211 370.0046C 15.741535 362.2808 24.130043 357.96048 32.018585 353.02972C 35.239464 351.01648 38.64285 349.28818 42.006763 347.51282C 45.306763 345.77124 48.42688 344.65753 52.549824 345.82385C 58.268196 347.4415 64.333336 347.8333 70.25 348.75" stroke="#000000" stroke-width="4" stroke-linecap="square" fill="none" />
    <path d="M664.5 336.5C 658.9662 337.44885 653.53265 335.41806 647.99695 335.96954C 644.9859 336.2695 643.53204 337.16193 641.71985 340.34027C 634.53937 352.93442 637.55194 365.5045 640.64886 377.96298C 643.35394 388.84525 649.8867 397.95724 657.0811 406.43112C 658.34247 407.91675 660.6509 408.53043 662.50415 409.492C 664.59216 410.57538 666.6599 411.63873 666.5 414.5" stroke="#000000" stroke-width="4" stroke-linecap="square" fill="none" />
    <path d="M316.75 237C 316.49994 238.08331 316.24985 239.16664 316.07736 239.91393C 311.44537 240.41187 306.96942 240.01477 302.42154 241.80016C 299.3322 243.01294 295.50153 242.42572 291.99973 242.48346C 279.33377 242.69221 266.66635 242.81424 254.0003 243.01857C 251.86205 243.05307 249.96213 242.68747 248.5 241" stroke="#000000" stroke-width="5" stroke-linecap="square" fill="none" />
    <path d="M394.5 250C 405.70792 252.59494 411.63876 261.14337 415.81256 270.5829C 420.30124 280.73462 421.71228 291.53192 417.60458 302.53903C 416.17593 306.36728 412.5807 309.11243 412.5 313.5" stroke="#000000" stroke-width="4" stroke-linecap="square" fill="none" />
    <path d="M356 232.5C 357.98892 235.56888 358.1726 238.79158 358.2042 242.49826C 358.29654 253.33649 359.9304 264.17197 359.8339 274.9985C 359.73526 286.06653 361.4787 296.97937 361.48288 308C 361.48392 310.78165 363.6758 313.11285 363 316" stroke="#000000" stroke-width="5" stroke-linecap="square" fill="none" />
    <path d="M446.5 246C 445.66666 245.5 444.77475 244.49316 444.00943 244.58163C 438.75406 245.18907 433.73233 243.1453 428.49796 243.46674C 415.47772 244.26628 402.51227 242.35435 389.5 242.5" stroke="#000000" stroke-width="4" stroke-linecap="square" fill="none" />
    <path d="M603.5 408C 602.6888 408.8776 601.7749 409.56616 600.5001 409.4976C 593.46576 409.1192 586.5584 411.132 579.49805 410.52237C 569.6081 409.66846 559.90936 413.11813 550.0039 411.96643C 548.1731 411.7536 547.54395 413.11856 546.5 414" stroke="#000000" stroke-width="4" stroke-linecap="square" fill="none" />
    <path d="M230 163.5C 226.25685 173.14508 216.89862 176.50562 208.83385 179.56152C 199.5945 183.06248 189.56285 185.45715 179.49118 186.40637C 176.72226 186.66734 174.39159 188.0541 171.50664 188.16809C 165.25754 188.4151 159.07893 188.95653 153 187" stroke="#000000" stroke-width="4" stroke-linecap="square" fill="none" />
    <path d="M136.5 78.5C 133.60515 83.947655 127.467224 85.29718 122.81422 87.62934C 113.23777 92.4292 109.85691 99.94804 109.06145 109.50511C 108.56435 115.47761 108.5864 121.499176 108.524765 127.50025C 108.47316 132.52466 117.2051 139.25873 121.9968 137.98795C 123.48432 137.59346 124.65686 136.28972 124.412254 135.01686C 123.15866 128.49368 127.417244 122.48838 126.011665 115.997475C 125.76288 114.848595 125.66667 113.666664 125.5 112.5" stroke="#000000" stroke-width="5" stroke-linecap="square" fill="none" />
    <path d="M276 88.5C 281.4253 93.287186 282.91058 100.63011 287.4139 106.07126C 289.5332 108.631905 291.71985 111.09502 293.9839 113.51506C 295.64255 115.287994 297.89297 116.708725 299.92804 115.8328C 302.2386 114.83828 303.46173 112.241066 303.48676 109.49988C 303.53665 104.035934 302.35303 98.75213 301 93.5" stroke="#000000" stroke-width="4" stroke-linecap="square" fill="none" />
    <path d="M114 136C 109.7582 138.82384 104.92661 137.74637 100.513794 137.34741C 89.44736 136.3469 78.477455 137.36925 67.51521 138.20058C 65.12179 138.38208 62.142525 137.21263 60 139.5" stroke="#000000" stroke-width="5" stroke-linecap="square" fill="none" />
    <path d="M245.75 183C 241.25801 193.94646 235.11014 204.15718 231.47026 215.49045C 229.13231 222.76994 227.5707 229.93246 232 237" stroke="#000000" stroke-width="5" stroke-linecap="square" fill="none" />
    <path d="M590 335.5C 591.5615 338.49448 594.38403 338.0745 596.9994 337.98215C 610.3298 337.51166 623.6776 338.63037 637.00165 337.51962C 638.69354 337.37857 640.43243 337.33942 642 338.25" stroke="#000000" stroke-width="9" stroke-linecap="square" fill="none" />
    <path d="M138.5 61.5C 142.16803 67.63558 147.92386 69.87988 156.49957 68.49733C 160.7847 67.80649 163.92891 65.87218 166.66968 62.124073C 169.97897 57.59848 172.19534 53.284237 172.19247 47.499905C 172.19093 44.399208 174.11047 41.29192 174.52043 38.002544C 174.81792 35.615543 175.89763 33.133495 173.96729 31.030018C 172.74898 29.70242 173.83672 28.57598 174.06943 27.515234C 175.26718 22.055826 174.07832 16.922058 171.9486 12.022345C 169.24617 5.805069 166.50925 5.739503 162.49869 11.503783C 161.99825 11.338378 161.42833 11.271976 161.01076 10.984373C 155.88315 7.452736 151.15062 3.075853 143.98125 5.953259C 134.1435 9.901599 126.564224 15.888509 125.17996 27.022373C 124.825905 29.870071 124.41638 33.62508 127.5 36" stroke="#000000" stroke-width="4" stroke-linecap="square" fill="none" />
    <path d="M656.5 406.5C 654.62213 407.4885 652.7491 408.08768 650.4993 408.0647C 637.5007 407.93204 624.49994 408.02438 611.50006 407.9775C 609.1662 407.9691 606.8333 407.66666 604.5 407.5" stroke="#000000" stroke-width="5" stroke-linecap="square" fill="none" />
    <path d="M173 30.5C 166.73146 29.682434 162.5578 26.121206 160.00935 20.495764C 158.57031 17.319225 156.7326 16.841442 153.45274 18.400604C 147.7899 21.092577 141.8003 23.088316 136.01216 25.528845C 132.43378 27.037645 128.90892 34.361824 129.4892 38.501514C 129.72153 40.158978 129.83333 41.833332 130 43.5" stroke="#000000" stroke-width="4" stroke-linecap="square" fill="none" />
    <path d="M3 240C 10 241.25 17.23033 241.80487 23.911034 244.0185C 27.735666 245.28578 30.71584 249.19327 33.980377 252.02264C 35.757015 253.56242 37.225136 255.46156 39.02021 256.97604C 44.481365 261.58356 45.106236 265.44067 42.10623 272.04822C 40.954216 274.58554 41.318893 277.7695 40.44412 280.48196C 36.891037 291.4992 30.406427 300.87244 23.523933 310.018C 20.735987 313.7227 16.646063 316.4281 15.014322 321.0051C 14.353831 322.85776 12.361939 321.28897 11.5 322.5" stroke="#000000" stroke-width="4" stroke-linecap="square" fill="none" />
    <path d="M315.5 240.5C 317.21707 243.75581 317.34097 246.61594 316.24197 250.5673C 310.38693 271.61926 302.98254 292.16125 296.46478 312.98898C 295.43375 316.28363 296.9491 319.88403 295 323" stroke="#000000" stroke-width="5" stroke-linecap="square" fill="none" />
    <path d="M197 109.5C 193.99956 114.07467 195.28696 119.251366 195.67212 123.986C 196.57335 135.06418 197.80544 146.15575 200.5 157" stroke="#000000" stroke-width="4" stroke-linecap="square" fill="none" />
    <path d="M659 337.5C 658.2858 339.48343 657.0865 341.11783 655.5034 342.50388C 645.3367 351.40527 644.8913 367.9119 652.0554 379.46564C 655.6172 385.2098 659.99005 390.3949 664.99194 395.0087C 668.6446 398.378 671.92413 402.0914 675.0335 405.97318C 676.3975 407.6761 677.0389 409.57587 676.4151 411.47208C 675.71045 413.61417 673.6702 413.85947 671.5114 414.1017C 668.7598 414.41046 665.36725 413.90604 664 417.5" stroke="#000000" stroke-width="4" stroke-linecap="square" fill="none" />
    <path d="M187 199C 177.66667 198.33333 168.34253 197.42146 158.99733 197.07101C 150.1764 196.74022 141.30937 196.59984 132.5076 197.12685C 125.49095 197.54698 118.49717 197.22806 111.50064 197.51567C 110.07953 197.5741 108.36472 197.37645 107.30203 198.07874C 102.58759 201.19429 97.09028 200.45023 91.97918 201.38634C 86.20191 202.44444 81.90739 204.29413 77.68375 209.22934C 71.29701 216.69206 70.85834 225.69084 68.13845 234.04507C 63.470802 248.38197 59.701996 263.01047 55.41327 277.47427C 55.152622 278.3533 55.06355 279.161 55.01557 280.0009C 54.18325 294.57086 49.50792 308.37308 46.81484 322.55975C 46.08649 326.39658 45.376953 330.48914 45.02998 334.5026C 44.60719 339.393 45.64437 340.55905 50.499264 340.46286C 55.507042 340.36365 60.432125 339.13614 65.50338 339.44443C 69.2472 339.672 72.660614 340.42206 75.5 343" stroke="#000000" stroke-width="5" stroke-linecap="square" fill="none" />
    <path d="M446.5 248C 445.0536 249.9187 442.95944 249.49258 441 249.49487C 431.33334 249.50613 421.66577 249.42516 412.00046 249.53851C 408.36597 249.58113 404.73065 250.03545 401.5 252" stroke="#000000" stroke-width="4" stroke-linecap="square" fill="none" />
    <path d="M389.5 236.5C 388.19592 233.63402 387.88483 230.58525 388.018 227.50078C 388.25726 221.95944 387.91742 216.44402 386.94083 211.01064C 386.25967 207.22081 384.99225 204.3399 380.62378 202.24225C 371.47888 197.85106 362.46118 201.00337 353.5109 201.31398C 349.11066 201.46667 344.47437 201.64363 339.98517 202.41354C 337.28555 202.87651 334.46808 202.5709 332.5 205" stroke="#000000" stroke-width="5" stroke-linecap="square" fill="none" />
    <path d="M321 321C 325.3698 323.09088 330.0066 321.6186 334.5055 321.9172C 343.48416 322.5132 352.52032 321.23657 361.5 322.5" stroke="#000000" stroke-width="5" stroke-linecap="square" fill="none" />
    <path d="M59 139.25C 64.19465 151.57216 71.076096 163.05138 76.868996 175.06317C 79.60536 180.73715 83.47494 185.58447 86.48066 191.01071C 88.05525 193.85333 90.410774 194.45438 93.49481 194.60576C 97.68814 194.81155 102.09983 194.02243 106.03255 196.44722C 106.64986 196.82784 106.95252 197.10464 107 197.75" stroke="#000000" stroke-width="5" stroke-linecap="square" fill="none" />
    <path d="M128 124C 131.89763 128.67819 133.1403 134.65091 135.28119 140.08618C 136.89192 144.17549 138.57993 148.30379 140.06477 152.47694C 141.06332 155.28331 142.56213 157.76164 141.59344 161.02771C 140.91603 163.31166 143.23166 164.9708 144.02502 166.99017C 144.82828 169.03473 145.83333 171 146.75 173" stroke="#000000" stroke-width="4" stroke-linecap="square" fill="none" />
    <path d="M317.5 112.5C 320.80215 121.82162 324.35385 131.07785 325.47104 141.00327C 325.64474 142.54662 325.64456 144.10095 324.52896 145.52272C 322.10184 148.6158 320.00143 151.97601 317.46207 154.96782C 313.25543 159.92403 313.44043 166.56041 310.56104 172.03212C 308.0993 176.71019 306.53192 181.88011 303.8748 186.42682C 302.02716 189.5883 299.7693 195.94514 301.591 197.91588C 303.81018 200.31653 304.34863 203.41847 306 206" stroke="#000000" stroke-width="5" stroke-linecap="square" fill="none" />
    <path d="M399.5 309C 400.6551 307.8815 401.90494 307.07764 403.4559 306.3992C 408.31955 304.2715 410.09592 299.6994 409.3631 295.02145C 407.28284 281.742 399.83176 271.6892 389 264" stroke="#000000" stroke-width="4" stroke-linecap="square" fill="none" />
    <path d="M589.5 331C 588.6888 330.1224 587.77454 329.42856 586.5002 329.50317C 577.1665 330.04977 567.8183 329.68204 558.506 329.84384C 553.41425 329.9323 548.1509 329.98004 543.0039 330.53632C 540.4477 330.8126 538.1398 331.8548 536.5 334" stroke="#000000" stroke-width="3" stroke-linecap="square" fill="none" />
    <path d="M360 335C 363.29843 340.85333 368.8503 343.08395 374.99374 344.52667C 382.24252 346.22903 389.4349 348.0511 397.0024 347.53543C 401.90692 347.2013 403.15884 345.34265 400.99747 341.00125C 400.13257 339.26395 399.22064 337.5459 399.5 335.5" stroke="#000000" stroke-width="4" stroke-linecap="square" fill="none" />
    <path d="M171 57.5C 175.14603 65.09278 172.67245 72.20353 168.35587 78.39958C 163.7375 85.028786 157.19939 89.31073 148.49826 89.06021C 147.13655 89.02101 145.79831 89.74505 144.44951 90.39527C 140.18538 92.4509 136.92416 90.93602 135.00073 86.49968C 134.49585 85.33514 134 84.16667 133.5 83" stroke="#000000" stroke-width="5" stroke-linecap="square" fill="none" />
    <path d="M308 44.499996C 302 51.666664 295.94318 58.78689 290.02832 66.02315C 287.70203 68.86918 286.46606 72.152306 286.9391 76.00748C 287.13806 77.62927 286.6667 79.333336 286.5 81" stroke="#000000" stroke-width="5" stroke-linecap="square" fill="none" />
    <path d="M15.5 321.5C 18.015001 323.04666 20.835236 322.66376 23.495113 322.44153C 31.009085 321.81375 38.5 321.84576 46 322.5" stroke="#000000" stroke-width="5" stroke-linecap="square" fill="none" />
    <path d="M174 67.5C 183.18842 72.33846 193.9418 74.45083 201 83" stroke="#000000" stroke-width="4" stroke-linecap="square" fill="none" />
    <path d="M252 103C 244.7313 107.68555 243.19656 115.55965 241.03342 123.009705C 238.2223 132.69147 235.98203 142.52092 234.55823 152.5083C 234.28984 154.39087 233.04971 155.3019 232 156.5" stroke="#000000" stroke-width="5" stroke-linecap="square" fill="none" />
    <path d="M124.5 137C 127.76531 137.38002 128.32382 140.2502 129.48442 142.50801C 131.8696 147.14804 134.15007 151.84174 136.5076 156.49615C 137.55096 158.55606 138.31122 160.90323 141 161.5" stroke="#000000" stroke-width="4" stroke-linecap="square" fill="none" />
    <path d="M202 208C 202.0827 210.26297 202.25014 212.31375 203.3607 214.5686C 206.56871 221.0821 203.90356 232.0057 198.50542 237.00584C 196.92773 238.4672 194.34798 239.14505 194.5 242" stroke="#000000" stroke-width="3" stroke-linecap="square" fill="none" />
    <path d="M208.5 181C 211.93463 186.5089 213.50804 192.49985 213.55542 198.9996C 213.57855 202.17235 212.96455 204.88254 210.5 207" stroke="#000000" stroke-width="4" stroke-linecap="square" fill="none" />
    <path d="M188.5 200C 192.01042 203.1726 197.11061 203.6101 200.52188 206.97784C 200.85841 207.31009 201.74513 207.6323 201.96239 207.45413C 204.35844 205.48953 206.96452 206.5063 208.3614 208.11998C 210.25214 210.30414 211.56908 213.21112 212.42314 216.02335C 214.80818 223.8767 210.64214 231.98833 202.98436 234.95969C 202.60599 235.1065 202 234.66667 201.5 234.5" stroke="#000000" stroke-width="5" stroke-linecap="square" fill="none" />
    <path d="M205 206C 205.47621 200.8303 204.05931 198.41714 198.98114 197.07117C 195.49512 196.1472 191.78331 195.3914 188.5 198" stroke="#000000" stroke-width="4" stroke-linecap="square" fill="none" />
    <path d="M313 161.5C 312 161.83333 310.77237 161.90373 310.03583 162.54137C 303.83655 167.908 296.6823 170.73566 288.5 171" stroke="#000000" stroke-width="3" stroke-linecap="square" fill="none" />
    <path d="M545 415C 538.8333 413.7584 532.6667 415.15894 526.5 415" stroke="#000000" stroke-width="8" stroke-linecap="square" fill="none" />
    <path d="M325 336C 325.2035 338.9495 326.4036 341.29218 328.4159 343.57416C 331.09018 346.60684 333.16666 350.1667 335.5 353.5" stroke="#000000" stroke-width="4" stroke-linecap="square" fill="none" />
    <path d="M247.5 240.5C 243.23466 241.65388 239.92288 238.39114 235.99887 238.01175C 228.65047 237.30125 221.38445 240.48598 213.99199 238.5303C 213.72166 238.45879 213.3481 238.93121 212.99759 238.98405C 210.81454 239.31314 210.93692 240.91634 211 242.5" stroke="#000000" stroke-width="5" stroke-linecap="square" fill="none" />
    <path d="M340.5 256.5C 346.16666 256.83334 351.83334 257.16666 357.5 257.5" stroke="#000000" stroke-width="5" stroke-linecap="square" fill="none" />
    <path d="M342 142.5C 336.94525 144.56784 331.7422 144.33731 326.5 143.5" stroke="#000000" stroke-width="5" stroke-linecap="square" fill="none" />
    <path d="M46 270.5C 47.855385 272.6593 47.717026 275.48257 48.54039 277.98672C 49.378635 280.5361 50.768333 282.5636 54 281" stroke="#000000" stroke-width="3" stroke-linecap="square" fill="none" />
    <path d="M357 242C 352.33334 242.93422 347.66666 242.68202 343 242" stroke="#000000" stroke-width="4" stroke-linecap="square" fill="none" />
    <path d="M38.5 243C 36.224625 243.9781 33.67763 243.88841 31.544353 243.33043C 29.522985 242.80173 28.119732 243.364 26.5 244" stroke="#000000" stroke-width="4" stroke-linecap="square" fill="none" />
    <path d="M266 93C 265.11972 95.373764 263.03555 96.474434 260.98047 97.459236C 259.10992 98.355606 257.71817 99.5515 257 101.5" stroke="#000000" stroke-width="3" stroke-linecap="square" fill="none" />
    <path d="M143.5 68.5C 143.52592 71.42614 143.82372 74.36759 142.01912 77.01305C 140.38629 79.4067 141.1825 81.81496 142.5378 83.9763C 143.614 85.692604 145.96588 86.54055 146 89" stroke="#000000" stroke-width="4" stroke-linecap="square" fill="none" />
    <path d="M213 228C 216.04906 230.95097 213.82913 234.69229 214.5 238" stroke="#000000" stroke-width="4" stroke-linecap="square" fill="none" />
    <path d="M301.5 174.5C 300.29517 178.45674 296.81595 182.31873 301 186.5" stroke="#000000" stroke-width="4" stroke-linecap="square" fill="none" />
</g>
</svg>
